<svg width="24" height="24" viewBox="0 0 24 24" fill="none" xmlns="http://www.w3.org/2000/svg">
<g clip-path="url(#clip0)">
<path d="M0.455 16.512L11.424 23.826C11.798 24.056 12.198 24.059 12.576 23.826L23.545 16.512C23.826 16.325 24 15.99 24 15.655V8.343C24 8.008 23.826 7.673 23.545 7.486L12.576 0.173007C12.202 -0.0569933 11.802 -0.0589933 11.424 0.173007L0.455 7.486C0.174 7.673 0 8.008 0 8.343V15.655C0 15.99 0.174 16.325 0.455 16.512ZM10.969 21.04L2.893 15.656L6.496 13.245L10.969 16.232V21.04ZM13.031 21.04V16.232L17.504 13.245L21.107 15.656L13.031 21.04ZM21.938 13.726L19.353 11.999L21.938 10.271V13.726ZM13.031 2.95901L21.107 8.343L17.504 10.754L13.031 7.767V2.95901ZM12 9.561L15.643 11.999L12 14.437L8.357 11.999L12 9.561ZM10.969 2.95901V7.767L6.496 10.754L2.893 8.343L10.969 2.95901ZM2.063 10.273V10.272L4.648 12L2.063 13.728V10.273Z" fill="black"/>
</g>
<defs>
<clipPath id="clip0">
<rect width="24" height="24" fill="white"/>
</clipPath>
</defs>
</svg>
