<svg width="24" height="24" viewBox="0 0 24 24" fill="none" xmlns="http://www.w3.org/2000/svg">
<g clip-path="url(#clip0)">
<path d="M12 0.00100708C5.38313 0.00100708 0 5.38413 0 12.0009C0 18.6176 5.38313 24.0007 12 24.0007C18.6169 24.0007 24 18.6176 24 12.0009C24 5.38413 18.6169 0.00100708 12 0.00100708ZM19.8199 5.66043C21.1671 7.31869 21.9965 9.41175 22.0654 11.6934C19.57 11.1768 17.3103 11.2374 15.3155 11.6285C14.9543 10.7838 14.5804 9.97911 14.203 9.21857C16.3755 8.28269 18.2667 7.08736 19.8199 5.66043ZM18.4681 4.28655C16.9264 5.69382 15.1397 6.73579 13.3102 7.50507C11.9674 5.04953 10.6826 3.20039 9.9 2.14956C10.5777 2.00518 11.2799 1.92773 12 1.92773C14.4607 1.92773 16.7169 2.81582 18.4681 4.28655ZM7.95402 2.77882C8.545 3.54463 9.95267 5.4621 11.4648 8.19021C7.66449 9.42832 3.97701 9.63692 2.20507 9.65632C2.94364 6.57099 5.10427 4.03402 7.95402 2.77882ZM1.93725 11.5879C1.95626 11.5879 1.97463 11.588 1.99403 11.588C3.21839 11.588 5.46161 11.5057 8.1025 11.0242C9.6092 10.7494 11.0379 10.3796 12.3785 9.92131C12.7275 10.6169 13.0745 11.3505 13.4109 12.1196C11.5337 12.7239 9.95074 13.5935 8.69683 14.4569C6.59414 15.9049 5.12109 17.5114 4.31675 18.5047C2.82753 16.7484 1.92672 14.4785 1.92672 12.0009C1.92672 11.8624 1.9316 11.7251 1.93725 11.5879ZM5.70515 19.8566C6.39761 18.9847 7.80707 17.3978 9.84593 16.0052C11.2315 15.0588 12.665 14.3557 14.1407 13.8942C14.9969 16.1135 15.7279 18.5657 16.1638 21.1695C14.8937 21.7485 13.4846 22.074 12 22.074C9.6196 22.074 7.43097 21.2423 5.70515 19.8566ZM17.9364 20.132C17.4872 17.7407 16.8173 15.4922 16.0429 13.4373C17.9478 13.1159 19.9165 13.1822 21.9385 13.6364C21.5025 16.294 20.0236 18.604 17.9364 20.132Z" fill="black"/>
</g>
<defs>
<clipPath id="clip0">
<rect width="24" height="24" fill="white"/>
</clipPath>
</defs>
</svg>
